<svg xmlns="http://www.w3.org/2000/svg" width="320" height="326" fill="none"><path fill="url(#a)" fill-opacity=".1" d="M81.322 21.762c-1.242.696-2.398 1.42-3.61 2.145L313.79 222.636c.549-1.304 1.011-2.637 1.502-3.941L81.323 21.762Zm-10.746 6.781c-1.098.783-2.254 1.565-3.352 2.376l241.512 203.279a109.432 109.432 0 0 0 1.733-3.738L70.576 28.543ZM51.393 44.046c-.924.898-1.935 1.826-2.889 2.782L296.371 255.44c.751-1.101 1.473-2.202 2.225-3.303L51.393 44.046Zm41.514-28.369c-1.3.608-2.6 1.246-3.9 1.913l229.031 192.818a100 100 0 0 0 1.213-4.202L92.907 15.677ZM42.9 52.682c-.924.985-1.82 1.97-2.716 2.984l248.936 209.51c.838-1.044 1.647-2.087 2.484-3.13L42.9 52.682ZM60.609 35.99c-1.069.84-2.051 1.71-3.12 2.58L302.9 245.122c.664-1.159 1.329-2.318 1.964-3.506L60.609 35.99Zm44.807-25.616a245.491 245.491 0 0 0-4.189 1.623l220.191 185.342c.318-1.449.606-2.956.866-4.463L105.416 10.374Zm111.771-.898a148.842 148.842 0 0 0-9.996-3.217l101.516 85.398a168.29 168.29 0 0 0-4.911-9.302l-86.609-72.88Zm29.033 13.793 38.942 32.745c-5.489-6.317-11.584-12.316-18.2-17.908a163.695 163.695 0 0 0-20.742-14.837ZM189.887 2.29a231.484 231.484 0 0 0-7.454-1.1l135.489 114.056a189.09 189.09 0 0 0-2.398-7.187L189.887 2.289ZM150.107.493c-1.849.145-3.727.318-5.576.521L324.74 152.655a126.405 126.405 0 0 0-.491-5.593L150.107.492Zm18.344-.406A227.69 227.69 0 0 0 162.182 0l160.42 135.036a155.814 155.814 0 0 0-1.184-6.201L168.451.087Zm-34.695 2.492c-1.647.29-3.323.609-4.998.985L324.942 168.68c.058-1.71.087-3.42.058-5.1L133.756 2.579ZM118.964 5.94c-1.531.406-3.062.87-4.593 1.333l209.358 176.214c.202-1.593.375-3.158.52-4.752L118.964 5.94ZM21.407 82.123c-.694 1.16-1.33 2.347-1.965 3.535l243.88 205.25c1.04-.84 2.08-1.681 3.149-2.55L21.407 82.123ZM2.773 193.108c.405 2.115.838 4.202 1.33 6.288l150.164 126.43c2.137.116 4.304.174 6.413.174L2.773 193.108ZM.058 159.146C0 160.856 0 162.594 0 164.304l189.482 159.465c1.647-.29 3.351-.609 5.027-.928L.058 159.146Zm.433 16.199c.116 1.883.289 3.738.491 5.592L172.93 325.681c1.878-.116 3.755-.319 5.604-.492L.491 175.345Zm7.396 37.902c.809 2.464 1.646 4.927 2.57 7.332l121.941 102.639c2.542.464 5.113.898 7.655 1.246L7.887 213.247ZM35.013 61.925c-.809 1.044-1.675 2.116-2.426 3.13l248.617 209.278c.925-.986 1.792-1.942 2.687-2.927L35.013 61.926ZM17.911 237.502a178.656 178.656 0 0 0 5.431 9.765L104 315.104c3.467 1.333 6.962 2.579 10.487 3.652l-96.576-81.254Zm51.076 58.825-21.118-17.764a173.898 173.898 0 0 0 10.169 9.331 175.026 175.026 0 0 0 10.949 8.433ZM15.657 93.106a213.967 213.967 0 0 0-1.704 3.738L253.27 298.297c1.127-.753 2.253-1.565 3.351-2.347L15.658 93.106Zm-4.968 11.649c-.52 1.333-.982 2.637-1.473 3.999l233.162 196.237a74.997 74.997 0 0 0 3.64-2.115L10.688 104.755ZM27.878 71.72c-.751 1.13-1.502 2.231-2.225 3.361L272.624 282.94c.983-.898 1.936-1.826 2.889-2.753L27.878 71.72Zm-26.78 72.473c-.174 1.594-.376 3.217-.491 4.782l203.811 171.548c1.531-.405 3.091-.84 4.593-1.304L1.098 144.193Zm2.195-13.996a136.181 136.181 0 0 0-.866 4.492l215.655 181.517a129.419 129.419 0 0 0 4.247-1.623L3.293 130.197Zm3.265-13.069a178.095 178.095 0 0 0-1.185 4.202l225.363 189.66c1.3-.609 2.6-1.247 3.928-1.884L6.558 117.128Z"/><defs><linearGradient id="a" x1="148.347" x2="176.861" y1=".631" y2="325.38" gradientUnits="userSpaceOnUse"><stop stop-color="#4D7FFF"/><stop offset="1" stop-color="#18A9F0"/></linearGradient></defs></svg>