<svg xmlns="http://www.w3.org/2000/svg" width="234" height="319" fill="none"><g clip-path="url(#a)"><path fill="url(#b)" fill-opacity=".1" d="M-69.474 185.394c4.752 2.957 6.231 9.224 3.239 13.976-2.958 4.753-9.26 6.197-13.977 3.239-4.753-2.957-6.196-9.224-3.24-13.976a10.09 10.09 0 0 1 13.978-3.239Zm14.75-42.74c-2.992 4.753-1.513 11.019 3.204 13.977 4.753 2.957 11.02 1.513 13.977-3.239 2.957-4.753 1.514-11.02-3.239-13.977-4.717-2.957-10.984-1.514-13.941 3.239Zm28.729-45.979c-2.957 4.753-1.55 11.019 3.204 13.977 4.752 2.957 11.019 1.514 13.976-3.239 2.957-4.753 1.514-11.02-3.239-13.977-4.717-2.957-10.984-1.514-13.941 3.239ZM2.698 50.731c-2.958 4.753-1.55 11.02 3.238 13.977 4.753 2.957 11.02 1.514 13.977-3.239 2.957-4.753 1.514-11.02-3.204-13.977a10.193 10.193 0 0 0-14.011 3.24ZM48.64 15.526c2.993-4.753 1.514-11.02-3.239-13.977C40.65-1.408 34.382.035 31.425 4.788c-2.957 4.753-1.513 11.02 3.24 13.977 4.717 2.957 10.984 1.513 13.976-3.24Zm-86.148 201.799c-2.958 4.753-1.514 11.02 3.238 13.977 4.753 2.957 10.985 1.514 13.977-3.239 2.993-4.753 1.514-11.019-3.204-13.977a10.194 10.194 0 0 0-14.012 3.239Zm28.727-45.943c-2.992 4.753-1.549 11.019 3.204 13.976 4.753 2.958 11.02 1.514 13.977-3.238 2.957-4.753 1.514-11.02-3.24-13.977-4.717-2.957-10.983-1.549-13.94 3.239Zm28.728-45.979c-2.957 4.753-1.549 11.019 3.24 13.977 4.752 2.957 11.019 1.514 13.976-3.239 2.957-4.753 1.514-11.02-3.239-13.977-4.753-2.957-11.02-1.514-13.977 3.239Zm28.728-45.944c-2.957 4.753-1.514 11.02 3.24 13.977 4.752 2.957 11.019 1.514 13.976-3.239 2.957-4.753 1.514-11.02-3.239-13.977-4.753-2.957-11.02-1.549-13.977 3.24ZM77.37 33.48c-2.957 4.753-1.514 11.02 3.239 13.977 4.753 2.957 11.02 1.514 13.977-3.239 2.957-4.753 1.549-11.02-3.24-13.976-4.752-2.958-10.983-1.514-13.976 3.238ZM8.471 246.054c-2.957 4.753-1.549 11.02 3.24 13.977 4.752 2.957 11.019 1.514 13.976-3.239 2.957-4.753 1.514-11.019-3.239-13.977-4.753-2.957-10.984-1.513-13.977 3.239ZM37.2 200.075c-2.957 4.752-1.549 11.019 3.204 13.976 4.753 2.958 11.02 1.514 13.977-3.239 2.957-4.752 1.549-11.019-3.24-13.976-4.717-2.958-10.983-1.514-13.94 3.239Zm28.693-45.944c-2.957 4.753-1.514 11.019 3.239 13.977 4.753 2.992 11.02 1.513 13.977-3.239 2.992-4.753 1.549-11.02-3.204-13.977a10.193 10.193 0 0 0-14.012 3.239Zm28.728-45.979c-2.993 4.753-1.514 11.02 3.204 13.977 4.752 2.957 11.019 1.514 13.976-3.239 2.958-4.753 1.514-11.02-3.239-13.977-4.717-2.957-10.949-1.514-13.941 3.239Zm28.728-45.944c-2.957 4.753-1.549 11.02 3.204 13.977 4.752 2.957 11.019 1.514 13.976-3.239 2.958-4.752 1.514-11.02-3.239-13.976-4.717-2.958-10.984-1.514-13.941 3.239ZM54.415 274.747c-2.957 4.753-1.514 11.02 3.239 13.977 4.753 2.957 11.02 1.549 13.976-3.204 2.958-4.753 1.514-11.019-3.238-13.977-4.718-2.957-10.985-1.549-13.977 3.204Zm28.728-45.944c-2.957 4.753-1.514 11.02 3.239 13.977 4.753 2.957 11.02 1.514 13.976-3.239 2.958-4.753 1.514-11.019-3.239-13.976-4.752-2.958-11.019-1.514-13.976 3.238Zm28.728-45.943c-2.958 4.753-1.549 11.019 3.239 13.977 4.753 2.957 11.019 1.513 13.976-3.239 2.993-4.753 1.514-11.02-3.203-13.977-4.788-2.957-11.055-1.514-14.012 3.239Zm28.728-45.979c-2.958 4.753-1.514 11.019 3.239 13.977 4.752 2.957 11.019 1.514 13.976-3.239 2.958-4.753 1.514-11.02-3.239-13.977-4.788-2.957-11.019-1.514-13.976 3.239Zm28.692-45.944c-2.957 4.753-1.513 11.02 3.239 13.977 4.753 2.957 11.02 1.514 13.977-3.239 2.957-4.753 1.514-11.02-3.239-13.977-4.753-2.957-11.019-1.513-13.977 3.24Zm-68.897 212.538c-2.993 4.753-1.514 11.019 3.203 13.977 4.753 2.957 11.02 1.514 13.977-3.239 2.957-4.753 1.514-11.02-3.239-13.977-4.717-2.957-10.984-1.514-13.941 3.239Zm28.692-45.944c-2.957 4.753-1.513 11.02 3.239 13.977 4.753 2.957 11.02 1.514 13.977-3.204 2.957-4.752 1.514-11.019-3.239-13.976-4.717-2.993-11.019-1.549-13.977 3.203Zm28.728-45.978c-2.957 4.752-1.513 11.019 3.239 13.976 4.753 2.958 11.02 1.514 13.977-3.203 2.957-4.753 1.514-11.02-3.204-13.977-4.788-2.993-11.054-1.549-14.012 3.204Zm28.728-45.944c-2.957 4.753-1.513 11.019 3.239 13.977 4.753 2.957 11.02 1.549 13.977-3.204 2.992-4.753 1.514-11.019-3.239-13.977-4.753-2.992-11.019-1.549-13.977 3.204Zm28.728-45.979c-2.957 4.753-1.514 11.02 3.239 13.977 4.753 2.957 11.02 1.514 13.977-3.239 2.957-4.753 1.549-11.019-3.239-13.977-4.753-2.922-11.019-1.514-13.977 3.239Z"/></g><defs><linearGradient id="b" x1="11.691" x2="137.324" y1="260.025" y2="58.974" gradientUnits="userSpaceOnUse"><stop stop-color="#4D7FFF"/><stop offset="1" stop-color="#18A9F0"/></linearGradient><clipPath id="a"><path fill="#fff" d="M-85 0h319v319H-85z"/></clipPath></defs></svg>