<svg xmlns="http://www.w3.org/2000/svg" width="249" height="249" fill="none"><path fill="url(#a)" fill-opacity=".15" d="M184.299 223.639c-.854-5.461 2.857-10.623 8.3-11.5 5.479-.857 10.617 2.901 11.471 8.362.862 5.49-2.857 10.623-8.336 11.481-5.435.905-10.564-2.826-11.435-8.343Zm-41.416 16.75a10.037 10.037 0 0 0 8.327-11.508c-.854-5.462-5.991-9.22-11.471-8.362-5.443.877-9.189 6.019-8.327 11.508.854 5.462 5.992 9.22 11.471 8.362Zm-52.904 8.332c5.451-.849 9.198-5.991 8.336-11.48-.89-5.481-6.02-9.212-11.471-8.362-5.48.857-9.19 6.019-8.336 11.48.87 5.517 6 9.248 11.47 8.362Zm150.236-78.026c5.479-.858 9.198-5.992 8.335-11.481-.862-5.489-6.019-9.211-11.498-8.354-5.452.85-9.19 6.019-8.309 11.473.89 5.48 6.02 9.211 11.472 8.362Zm-52.869 8.351c5.48-.857 9.199-5.991 8.336-11.48a10.028 10.028 0 0 0-11.471-8.362c-5.443.876-9.17 5.982-8.3 11.499.854 5.462 5.984 9.192 11.435 8.343Zm-52.895 8.36c5.479-.857 9.198-5.991 8.336-11.48a10.03 10.03 0 0 0-11.472-8.362c-5.451.849-9.198 5.991-8.308 11.472.863 5.489 5.992 9.22 11.444 8.37Zm-52.868 8.352c5.443-.877 9.19-6.019 8.335-11.481-.853-5.461-6.019-9.211-11.47-8.362a10.038 10.038 0 0 0-8.328 11.508c.854 5.462 5.992 9.22 11.463 8.335ZM25.56 184.303a9.973 9.973 0 0 0-8.308 11.472 10.03 10.03 0 0 0 11.471 8.362c5.452-.849 9.17-5.983 8.308-11.472-.898-5.509-6.028-9.239-11.47-8.362Zm206.25-66.6c5.479-.857 9.198-5.991 8.336-11.48-.863-5.489-6.011-9.184-11.49-8.326-5.452.85-9.171 5.983-8.309 11.472.882 5.453 6.011 9.184 11.463 8.334Zm-52.868 8.352c5.479-.858 9.198-5.991 8.336-11.481a10.03 10.03 0 0 0-11.471-8.362c-5.444.877-9.199 5.992-8.309 11.473.835 5.497 5.973 9.255 11.444 8.37Zm-52.887 8.388c5.471-.886 9.189-6.019 8.308-11.472-.863-5.49-5.992-9.22-11.463-8.335-5.452.849-9.198 5.992-8.336 11.481.873 5.425 6.039 9.175 11.491 8.326Zm-52.877 8.324c5.452-.85 9.198-5.992 8.336-11.481-.862-5.489-6.02-9.211-11.471-8.362-5.471.885-9.198 5.991-8.336 11.481.87 5.517 6 9.247 11.471 8.362Zm-52.887 8.387c5.47-.885 9.198-5.991 8.308-11.472-.862-5.489-5.992-9.22-11.463-8.334-5.479.858-9.198 5.991-8.335 11.48.909 5.445 6.01 9.184 11.49 8.326Zm203.114-86.442c5.48-.858 9.199-5.991 8.336-11.48-.862-5.49-6.019-9.212-11.499-8.354-5.451.85-9.162 6.01-8.299 11.5.881 5.453 6.019 9.211 11.462 8.334Zm-52.859 8.38c5.471-.886 9.189-6.02 8.3-11.5a10.03 10.03 0 0 0-11.472-8.362c-5.443.877-9.17 5.983-8.299 11.5a10.03 10.03 0 0 0 11.471 8.361Zm-52.896 8.36c5.479-.858 9.198-5.992 8.336-11.481a10.03 10.03 0 0 0-11.471-8.362c-5.452.85-9.198 5.991-8.336 11.48.862 5.49 6.019 9.212 11.471 8.362Zm-52.868 8.351c5.443-.877 9.198-5.991 8.308-11.472-.862-5.49-6.02-9.211-11.47-8.362-5.48.858-9.2 5.991-8.337 11.48.863 5.49 6.028 9.24 11.499 8.354Zm-52.896 8.36c5.452-.85 9.17-5.983 8.309-11.472a10.03 10.03 0 0 0-11.472-8.362c-5.48.858-9.198 5.991-8.3 11.5.882 5.453 5.984 9.192 11.463 8.334ZM162.114 20.11c5.47-.886 9.189-6.02 8.327-11.509A10.03 10.03 0 0 0 158.97.238c-5.452.85-9.171 5.983-8.308 11.473.87 5.516 6.008 9.275 11.452 8.398Zm-52.86 8.379c5.479-.858 9.19-6.02 8.327-11.508a10.03 10.03 0 0 0-11.471-8.362c-5.452.849-9.198 5.991-8.308 11.472.835 5.497 6 9.247 11.452 8.398Zm-52.896 8.36c5.471-.885 9.19-6.019 8.328-11.508-.863-5.49-6.02-9.212-11.472-8.362-5.47.885-9.198 5.991-8.335 11.48.862 5.49 6.028 9.24 11.48 8.39Z"/><defs><linearGradient id="a" x1="240.155" x2="8.841" y1="106.221" y2="142.917" gradientUnits="userSpaceOnUse"><stop stop-color="#4D7FFF"/><stop offset="1" stop-color="#18A9F0"/></linearGradient></defs></svg>