<svg xmlns="http://www.w3.org/2000/svg" width="148" height="266" fill="none"><path fill="url(#a)" fill-opacity=".15" d="m189.954 259.773-8.665 2.821L98.046 6.186l8.665-2.822 83.243 256.409ZM140.993 0l-8.664 2.821L211 245.186l8.664-2.821L140.993 0Zm35.766 1.066-8.665 2.82 71.196 219.358 8.665-2.821L176.759 1.066Zm41.026 17.344-8.665 2.822 53.22 163.896 8.665-2.821-53.22-163.897Zm47.019 35.818-8.665 2.8 23.175 71.427 8.686-2.821-23.196-71.406ZM76.98 20.834l-8.665 2.822L146.986 266l8.664-2.821L76.98 20.835Zm-28.312 21.88-8.664 2.82 71.217 219.358 8.664-2.821L48.668 42.714ZM25.681 80.872l-8.665 2.821L70.215 247.59l8.664-2.822L25.681 80.872Zm6.18 128.079L8.665 137.503 0 140.324l23.175 71.427 8.686-2.8Z"/><defs><linearGradient id="a" x1="276.401" x2="11.543" y1="89.927" y2="175.899" gradientUnits="userSpaceOnUse"><stop stop-color="#4D7FFF"/><stop offset="1" stop-color="#18A9F0"/></linearGradient></defs></svg>