<svg xmlns="http://www.w3.org/2000/svg" width="335" height="348" fill="none"><path fill="url(#a)" fill-opacity=".1" d="M334.676 347.964 267 0 .287 232.346l334.389 115.618Zm-5.26-6.05L8.12 230.815 264.389 7.559l65.027 334.355Zm-12.21-14.079L258.368 25.178 26.358 227.305l290.848 100.53Zm-5.222-6.027L34.222 225.766 255.788 32.728l56.196 289.08Zm-12.203-14.048L249.736 50.355 52.453 222.226l247.328 85.534Zm-5.23-6.058L60.279 220.664l186.846-162.75 47.426 243.788Zm-12.172-14.056L241.104 75.532 78.524 217.185l203.855 70.461Zm-5.252-6.02-190.8-65.965L238.524 83.083l38.603 198.543Zm-12.202-14.048-32.483-166.861-127.884 111.404 160.367 55.457Zm-5.23-6.057-147.273-50.939 117.432-102.344 29.841 153.283Zm-12.21-14.079-23.652-121.585-93.18 81.184 116.832 40.401Zm-5.222-6.027-103.77-35.874 82.759-72.133 21.011 108.007Zm-12.21-14.079-14.829-76.34-58.507 50.974 73.336 25.366Zm-5.26-6.05-60.266-20.809 48.093-41.892 12.173 62.701Z"/><defs><linearGradient id="a" x1="367.511" x2="100.31" y1="115.88" y2="347.641" gradientUnits="userSpaceOnUse"><stop stop-color="#4D7FFF"/><stop offset="1" stop-color="#18A9F0"/></linearGradient></defs></svg>